<svg width="60" height="60" viewBox="0 0 60 60" fill="none" xmlns="http://www.w3.org/2000/svg">
<path d="M30.5437 0.00501883C13.9681 -0.294993 0.305031 12.893 0.00501883 29.4562C-0.294993 46.0194 12.893 59.6949 29.4562 59.9949C46.0194 60.2949 59.6949 47.1069 59.9949 30.5312C60.2949 13.9681 47.1069 0.29253 30.5437 0.00501883ZM29.5562 54.3697C16.1182 54.1197 5.38023 42.9942 5.63024 29.5562C5.86775 16.1182 16.9932 5.38023 30.4312 5.61774C43.8818 5.86775 54.6072 16.9932 54.3697 30.4312C54.1322 43.8693 42.9942 54.6072 29.5562 54.3697Z" fill="white"/>
<path d="M30.3962 8.12284C18.3333 7.91034 8.34535 17.5482 8.13284 29.6112C7.90784 41.6617 17.5457 51.6496 29.6087 51.8746C41.6717 52.0871 51.6596 42.4492 51.8721 30.3987C52.0846 18.3358 42.4592 8.34785 30.3962 8.12284ZM30.0025 14.3581L36.954 26.7598L30.61 23.2297C30.2312 23.0197 29.7725 23.0197 29.3937 23.2297L23.0497 26.7598L30.0025 14.3581ZM30.0025 45.6381L23.0497 33.2364L29.3937 36.7665C29.5825 36.8715 29.7925 36.924 30.0012 36.924C30.21 36.924 30.42 36.8715 30.6087 36.7665L36.9528 33.2364L30.0025 45.6381ZM30.0025 34.2426L22.3722 29.9975L30.0025 25.7523L37.6315 29.9975L30.0025 34.2426Z" fill="white"/>
</svg>
