<svg width="63" height="63" viewBox="0 0 63 63" fill="none" xmlns="http://www.w3.org/2000/svg">
<rect width="63" height="63" rx="14" fill="#625794"/>
<path d="M25.4811 24.6343L25.4811 24.6343L30.3542 19.7376C30.3568 19.7348 30.3594 19.7323 30.3617 19.7301M25.4811 24.6343L30.7114 20.0875L30.3584 19.7333C30.3677 19.7241 30.3754 19.7172 30.3786 19.7143L30.3797 19.7133C30.3773 19.7155 30.3706 19.7214 30.3625 19.7293C30.3622 19.7295 30.362 19.7298 30.3617 19.7301M25.4811 24.6343C24.9211 25.197 24.9232 26.1071 25.486 26.6672C26.0487 27.2273 26.9588 27.2251 27.5189 26.6624L27.5189 26.6624L29.9375 24.232M25.4811 24.6343L29.9375 24.232M30.3617 19.7301C30.921 19.1741 31.8276 19.1724 32.3887 19.7304C32.3899 19.7316 32.3912 19.7329 32.3924 19.7341L32.3939 19.7356L32.406 19.7477L37.2689 24.6342L36.9145 24.9869L37.2689 24.6342C37.8288 25.1968 37.8269 26.107 37.264 26.6672C36.7013 27.2272 35.7911 27.225 35.2311 26.6623L35.2311 26.6623L32.8125 24.232L32.8125 42.875C32.8125 43.6689 32.1689 44.3125 31.375 44.3125C30.5811 44.3125 29.9375 43.6689 29.9375 42.875L29.9375 24.232M30.3617 19.7301C30.3603 19.7315 30.3589 19.7329 30.3574 19.7343L29.9375 24.232M32.3925 19.7342C32.393 19.7347 32.3934 19.7351 32.3939 19.7356L32.3925 19.7342Z" fill="white" stroke="white"/>
</svg>
