<svg width="63" height="63" viewBox="0 0 63 63" fill="none" xmlns="http://www.w3.org/2000/svg">
<rect width="63" height="63" rx="14" fill="#625794"/>
<path d="M37.2694 38.9907L37.2694 38.9908L32.3963 43.8874C32.3936 43.8902 32.3911 43.8927 32.3888 43.8949M37.2694 38.9907L32.0391 43.5375L32.3921 43.8917C32.3828 43.9009 32.3751 43.9078 32.3719 43.9107L32.3707 43.9117C32.3732 43.9095 32.3799 43.9036 32.388 43.8957C32.3883 43.8955 32.3885 43.8952 32.3888 43.8949M37.2694 38.9907C37.8294 38.4281 37.8273 37.5179 37.2645 36.9578C36.7018 36.3978 35.7917 36.3999 35.2316 36.9626L35.2316 36.9626L32.813 39.393M37.2694 38.9907L32.813 39.393M32.3888 43.8949C31.8295 44.4509 30.9229 44.4526 30.3618 43.8946C30.3606 43.8934 30.3593 43.8922 30.358 43.8909L30.3566 43.8894L30.3445 43.8773L25.4816 38.9908L25.836 38.6381L25.4816 38.9908C24.9217 38.4282 24.9236 37.518 25.4865 36.9578C26.0492 36.3978 26.9593 36.4 27.5194 36.9627L27.5194 36.9627L29.938 39.393L29.938 20.75C29.938 19.9561 30.5816 19.3125 31.3755 19.3125C32.1694 19.3125 32.813 19.9561 32.813 20.75L32.813 39.393M32.3888 43.8949C32.3902 43.8935 32.3916 43.8921 32.393 43.8907L32.813 39.393M30.358 43.8908C30.3575 43.8903 30.3571 43.8899 30.3566 43.8894L30.358 43.8908Z" fill="white" stroke="white"/>
</svg>
