<svg width="80" height="80" viewBox="0 0 80 80" fill="none" xmlns="http://www.w3.org/2000/svg">
<circle cx="40" cy="40" r="40" fill="white"/>
<path d="M40.725 0.00669178C18.6241 -0.393325 0.406708 17.1907 0.00669178 39.275C-0.393325 61.3592 17.1907 79.5933 39.275 79.9933C61.3592 80.3933 79.5933 62.8093 79.9933 40.7084C80.3933 18.6241 62.8093 0.390041 40.725 0.00669178ZM39.4083 72.493C21.4909 72.1597 7.17365 57.3257 7.507 39.4083C7.82368 21.4909 22.6576 7.17365 40.575 7.49033C58.5091 7.82368 72.8097 22.6576 72.493 40.575C72.1763 58.4924 57.3257 72.8097 39.4083 72.493Z" fill="#FF782C"/>
<path d="M40.525 10.8238C24.441 10.5405 11.1238 23.391 10.8405 39.475C10.7455 44.5352 11.9605 49.3204 14.1639 53.5139H23.3326V24.8027C23.3326 23.0476 25.7177 22.4893 26.4928 24.0643L40 51.4171L53.5072 24.066C54.2822 22.4893 56.6674 23.0476 56.6674 24.8027V53.5139H65.8077C67.8578 49.6171 69.0779 45.2169 69.1595 40.525C69.4429 24.441 56.609 11.1238 40.525 10.8238Z" fill="#FF782C"/>
<path d="M53.3339 55.1806V31.943L41.4934 55.919C40.9334 57.0574 39.065 57.0574 38.5049 55.919L26.6661 31.943V55.1806C26.6661 56.1007 25.9211 56.8474 24.9994 56.8474H16.2474C21.4326 64.1327 29.8629 68.9795 39.475 69.1595C49.4704 69.3362 58.3908 64.436 63.786 56.8474H55.0006C54.0789 56.8474 53.3339 56.1007 53.3339 55.1806Z" fill="#FF782C"/>
</svg>
