<svg width="80" height="80" viewBox="0 0 80 80" fill="none" xmlns="http://www.w3.org/2000/svg">
<circle cx="40" cy="40" r="40" fill="white"/>
<path d="M40 0C17.9083 0 0 17.9083 0 40C0 62.0917 17.9083 80 40 80C62.0917 80 80 62.0917 80 40C80 17.9083 62.0917 0 40 0ZM40 72.5C22.0783 72.5 7.5 57.92 7.5 40C7.5 22.08 22.0783 7.5 40 7.5C57.9217 7.5 72.5 22.0783 72.5 40C72.5 57.9217 57.92 72.5 40 72.5Z" fill="#FFAB2D"/>
<path d="M42.065 41.2983H36.8133V49.1H42.065C43.125 49.1 44.1083 48.67 44.7983 47.9483C45.52 47.2566 45.95 46.275 45.95 45.1833C45.9517 43.0483 44.2 41.2983 42.065 41.2983Z" fill="#FFAB2D"/>
<path d="M40 10.8333C23.9167 10.8333 10.8333 23.9166 10.8333 40C10.8333 56.0833 23.9167 69.1666 40 69.1666C56.0833 69.1666 69.1667 56.0816 69.1667 40C69.1667 23.9183 56.0817 10.8333 40 10.8333ZM45.935 53.5066H42.495V58.9133H38.8867V53.5066H36.905V58.9133H33.28V53.5066H26.9067V50.1133H30.4233V29.7799H26.9067V26.3866H33.28V21.0883H36.905V26.3866H38.8867V21.0883H42.495V26.3866H45.6283C47.3783 26.3866 48.9917 27.1083 50.1433 28.26C51.295 29.4116 52.0167 31.025 52.0167 32.775C52.0167 36.2 49.3133 38.995 45.935 39.1483C49.8967 39.1483 53.0917 42.3733 53.0917 46.335C53.0917 50.2816 49.8983 53.5066 45.935 53.5066Z" fill="#FFAB2D"/>
<path d="M44.385 36.5066C45.015 35.8766 45.3983 35.0316 45.3983 34.08C45.3983 32.1916 43.8633 30.655 41.9733 30.655H36.8133V37.52H41.9733C42.91 37.52 43.77 37.12 44.385 36.5066Z" fill="#FFAB2D"/>
</svg>
