<svg width="80" height="80" viewBox="0 0 80 80" fill="none" xmlns="http://www.w3.org/2000/svg">
<circle cx="40" cy="40" r="40" fill="white"/>
<path d="M40.725 0.00669178C18.6241 -0.393325 0.406678 17.1907 0.00666126 39.275C-0.393355 61.3592 17.1907 79.5933 39.2749 79.9933C61.3592 80.3933 79.5933 62.8093 79.9933 40.7084C80.3933 18.6241 62.8092 0.390041 40.725 0.00669178ZM39.4083 72.493C21.4909 72.1597 7.17362 57.3257 7.50697 39.4083C7.82365 21.4909 22.6576 7.17365 40.575 7.49033C58.5091 7.82368 72.8096 22.6576 72.493 40.575C72.1763 58.4924 57.3257 72.8097 39.4083 72.493Z" fill="#374C98"/>
<path d="M40.5283 10.8305C24.4443 10.5471 11.1271 23.3976 10.8438 39.4816C10.5438 55.549 23.3943 68.8662 39.4783 69.1662C55.5623 69.4495 68.8795 56.599 69.1628 40.5317C69.4462 24.4477 56.6123 11.1305 40.5283 10.8305ZM52.5455 56.9324H26.0111L29.2612 38.9483L25.4944 39.7317V36.6649L29.8279 35.7482L32.6447 20.2809H43.2284L40.8283 33.4481L44.5285 32.6647V35.7315L40.2616 36.6149L37.7949 50.2154H54.5122L52.5455 56.9324Z" fill="#374C98"/>
</svg>
