<svg width="40" height="40" viewBox="0 0 40 40" fill="none" xmlns="http://www.w3.org/2000/svg">
<path d="M20.6335 23.1222C20.2266 23.2577 19.7734 23.2577 19.3665 23.1222L15 21.6666L20 30L25 21.6666L20.6335 23.1222Z" fill="#00ADA3"/>
<path d="M20 20L25 18.0001L20 10L15 18.0001L20 20Z" fill="#00ADA3"/>
<path d="M20 0C8.95433 0 0 8.95433 0 20C0 31.0457 8.95433 40 20 40C31.0457 40 40 31.0457 40 20C39.9878 8.95956 31.0404 0.0122071 20 0ZM28.4207 19.2105L21.2778 33.4962C20.9251 34.2021 20.0667 34.488 19.3613 34.1353C19.0845 33.9972 18.8604 33.7731 18.7222 33.4962L11.5793 19.2105C11.3574 18.7649 11.3827 18.2361 11.646 17.8136L18.7889 6.38517C19.2636 5.7164 20.1901 5.55858 20.8588 6.03335C20.9953 6.13013 21.1143 6.24872 21.2111 6.38517L28.3536 17.8136C28.6173 18.2361 28.6426 18.7649 28.4207 19.2105Z" fill="#00ADA3"/>
</svg>
