<svg width="40" height="40" viewBox="0 0 40 40" fill="none" xmlns="http://www.w3.org/2000/svg">
<path d="M26.667 15.8335C26.6658 14.4533 25.547 13.3348 24.1672 13.3333H16.667V18.3333H24.1672C25.547 18.3322 26.6658 17.2133 26.667 15.8335Z" fill="#FFAB2D"/>
<path d="M16.667 26.6667H24.1672C25.5477 26.6667 26.667 25.5474 26.667 24.1669C26.667 22.7859 25.5477 21.6667 24.1672 21.6667H16.667V26.6667Z" fill="#FFAB2D"/>
<path d="M20 0C8.95433 0 0 8.95433 0 20C0 31.0457 8.95433 40 20 40C31.0457 40 40 31.0457 40 20C39.9874 8.95956 31.0404 0.012643 20 0ZM30.0002 24.2856C29.9963 27.4402 27.4402 29.9963 24.286 29.9998V31.4284C24.286 32.2175 23.646 32.8571 22.8573 32.8571C22.0682 32.8571 21.4287 32.2175 21.4287 31.4284V29.9998H18.5718V31.4284C18.5718 32.2175 17.9318 32.8571 17.1431 32.8571C16.354 32.8571 15.7144 32.2175 15.7144 31.4284V29.9998H11.4289C10.6398 29.9998 10.0002 29.3602 10.0002 28.5716C10.0002 27.7825 10.6398 27.1429 11.4289 27.1429H12.8571V12.8571H11.4289C10.6398 12.8571 10.0002 12.2175 10.0002 11.4284C10.0002 10.6393 10.6398 9.99978 11.4289 9.99978H15.7144V8.57155C15.7144 7.78245 16.354 7.14289 17.1431 7.14289C17.9322 7.14289 18.5718 7.78245 18.5718 8.57155V9.99978H21.4287V8.57155C21.4287 7.78245 22.0682 7.14289 22.8573 7.14289C23.6464 7.14289 24.286 7.78245 24.286 8.57155V9.99978C27.4284 9.9867 29.9867 12.5232 30.0002 15.6656C30.0072 17.3297 29.2857 18.9136 28.0253 20C29.2739 21.0742 29.9945 22.638 30.0002 24.2856Z" fill="#FFAB2D"/>
</svg>
