<svg width="40" height="40" viewBox="0 0 40 40" fill="none" xmlns="http://www.w3.org/2000/svg">
<path d="M20.3602 0.00315166C9.33037 -0.191103 0.197863 8.61893 0.00355408 19.6458C-0.0615965 23.1149 0.771644 26.3956 2.28268 29.2705H8.57028V9.58678C8.57028 8.38354 10.2059 8.00075 10.7374 9.08057L20.0002 27.833L29.263 9.08172C29.7945 8.00074 31.4301 8.38354 31.4301 9.58678V29.2705H37.6983C39.1042 26.599 39.9408 23.5823 39.9968 20.3657C40.1912 9.33882 31.3901 0.208833 20.3602 0.00315166Z" fill="#FF782C"/>
<path d="M29.1441 30.4132V14.482L21.0243 30.9194C20.6403 31.6999 19.359 31.6999 18.9749 30.9194L10.8563 14.482V30.4132C10.8563 31.044 10.3453 31.5559 9.71327 31.5559H3.71142C7.26727 36.5505 13.0485 39.8734 19.6402 39.9968C26.4947 40.118 32.612 36.7585 36.3118 31.5559H30.2871C29.655 31.5559 29.1441 31.044 29.1441 30.4132Z" fill="#FF782C"/>
</svg>
