<svg width="60" height="60" viewBox="0 0 60 60" fill="none" xmlns="http://www.w3.org/2000/svg">
<path d="M30.5438 0.00501884C13.9681 -0.294993 0.305031 12.893 0.00501884 29.4562C-0.294993 46.0194 12.893 59.695 29.4562 59.995C46.0194 60.295 59.695 47.107 59.995 30.5313C60.295 13.9681 47.107 0.292531 30.5438 0.00501884ZM29.5562 54.3698C16.1182 54.1197 5.38024 42.9943 5.63025 29.5562C5.86776 16.1182 16.9932 5.38024 30.4313 5.61775C43.8818 5.86776 54.6073 16.9932 54.3698 30.4313C54.1322 43.8693 42.9943 54.6073 29.5562 54.3698Z" fill="white"/>
<path d="M30.3938 8.11785C18.3308 7.90534 8.34286 17.5432 8.13035 29.6062C8.0591 33.4014 8.97039 36.9903 10.623 40.1354H17.4995V18.602C17.4995 17.2857 19.2883 16.867 19.8696 18.0483L30 38.5629L40.1304 18.0495C40.7117 16.867 42.5005 17.2857 42.5005 18.602V40.1354H49.3558C50.8934 37.2128 51.8084 33.9127 51.8696 30.3938C52.0822 18.3308 42.4568 8.34286 30.3938 8.11785Z" fill="white"/>
<path d="M40.0004 41.3855V23.9573L31.12 41.9392C30.7 42.793 29.2987 42.793 28.8787 41.9392L19.9996 23.9573V41.3855C19.9996 42.0755 19.4408 42.6355 18.7495 42.6355H12.1855C16.0744 48.0995 22.3972 51.7346 29.6062 51.8696C37.1028 52.0022 43.7931 48.327 47.8395 42.6355H41.2505C40.5592 42.6355 40.0004 42.0755 40.0004 41.3855Z" fill="white"/>
</svg>
